<?xml version="1.0" encoding="utf-8"?>
<!-- Generator: Adobe Illustrator 28.2.0, SVG Export Plug-In . SVG Version: 6.00 Build 0)  -->
<svg version="1.1" id="Camada_1" xmlns="http://www.w3.org/2000/svg" xmlns:xlink="http://www.w3.org/1999/xlink" x="0px" y="0px"
	 viewBox="0 0 320 320" style="enable-background:new 0 0 320 320;" xml:space="preserve">
<style type="text/css">
	.st0{fill-rule:evenodd;clip-rule:evenodd;fill:#8533AD;}
	.st1{fill-rule:evenodd;clip-rule:evenodd;fill:#5D2479;}
	.st2{fill-rule:evenodd;clip-rule:evenodd;fill:#4A1D61;}
	.st3{fill-rule:evenodd;clip-rule:evenodd;fill:#F7B1CB;}
	.st4{fill-rule:evenodd;clip-rule:evenodd;fill:#6A298A;}
	.st5{fill-rule:evenodd;clip-rule:evenodd;fill:#EF6497;}
</style>
<path class="st0" d="M299,205.1h-18.9H39.9H21c-7.2,0-13,5.8-13,13v52.2c0,7.2,5.8,13,13,13h18.9h240.2H299c7.2,0,12.9-5.8,13-13
	v-52.2C312,211,306.2,205.1,299,205.1z"/>
<path class="st1" d="M208.6,283.4h71.5h9.9v5.1c0.1,2.4-1.9,4.5-4.5,4.5H271h-43.5h-14.5c-2.5,0-4.5-2-4.5-4.5V283.4z M34.2,283.4
	h5.7h75.8v5.1c0,2.4-2,4.5-4.5,4.5H96.6H53.2H38.6c-2.5,0-4.5-2-4.5-4.5V283.4z"/>
<path class="st2" d="M208.6,283.4h14.5v5.1c0,2.4,1.9,4.5,4.5,4.5h-14.5c-2.5,0-4.5-2-4.5-4.5V283.4z M34.2,283.4h5.7h8.9v5.1
	c0,2.4,1.9,4.5,4.5,4.5H38.6c-2.5,0-4.5-2-4.5-4.5V283.4z"/>
<path class="st0" d="M66.8,73.5h4c1.9,0,3.5,1.6,3.5,3.5v128.1h-11V77C63.3,75.1,64.8,73.5,66.8,73.5z M264.5,205.1h11V77
	c0-1.9-1.6-3.5-3.5-3.5h-4c-1.9,0-3.5,1.6-3.5,3.5V205.1z M229.4,244.3h-15.9c-0.7,0-1.3,0.6-1.3,1.3v1.5c0,0.7,0.6,1.3,1.3,1.3
	h15.9c0.7,0,1.3-0.6,1.3-1.3v-1.5C230.7,244.9,230.1,244.3,229.4,244.3z M277.1,244.3h-15.9c-0.7,0-1.3,0.6-1.3,1.3v1.5
	c0,0.7,0.6,1.3,1.3,1.3h15.9c0.7,0,1.3-0.6,1.3-1.3v-1.5C278.3,244.9,277.8,244.3,277.1,244.3z"/>
<path class="st3" d="M67,232.1c-6.7,0-12.2,5.4-12.2,12.2c0,6.7,5.4,12.2,12.2,12.2c6.7,0,12.2-5.4,12.2-12.2
	C79.2,237.5,73.8,232.1,67,232.1z"/>
<path class="st3" d="M182.2,244.3h-15.9c-0.7,0-1.3,0.6-1.3,1.3v1.5c0,0.7,0.6,1.3,1.3,1.3h15.9c0.7,0,1.3-0.6,1.3-1.3v-1.5
	C183.5,244.9,182.9,244.3,182.2,244.3z M253.2,244.3h-15.9c-0.7,0-1.3,0.6-1.3,1.3v1.5c0,0.7,0.6,1.3,1.3,1.3h15.9
	c0.7,0,1.3-0.6,1.3-1.3v-1.5C254.5,244.9,253.9,244.3,253.2,244.3z M189.7,244.3h15.9c0.7,0,1.3,0.6,1.3,1.3v1.5
	c0,0.7-0.6,1.3-1.3,1.3h-15.9c-0.7,0-1.3-0.6-1.3-1.3v-1.5C188.5,244.9,189,244.3,189.7,244.3z"/>
<path class="st4" d="M26.9,270.4v-52.2c0-7.2,5.8-13,13-13H21c-7.2,0-13,5.8-13,13v52.2c0,7.2,5.8,13,13,13h18.9
	C32.7,283.4,26.9,277.6,26.9,270.4z"/>
<path class="st5" d="M108.3,62.9l0.5,0.5c2,2,5.1,1.9,7.2,0c13.6-12.9,31.8-20.8,52-20.8c20.1,0,38.4,7.9,52,20.8c2,1.9,5.2,2,7.2,0
	l0.5-0.5c2.1-2,1.9-5.4-0.2-7.4c-15.5-14.7-36.4-23.8-59.5-23.8c-23,0-43.9,9.1-59.5,23.8C106.4,57.5,106.3,60.8,108.3,62.9z
	 M125.2,72.3c11.2-10.4,26.2-16.9,42.7-16.9s31.5,6.4,42.7,16.9c2.1,2,2.2,5.3,0.2,7.4l-0.5,0.5c-1.9,1.9-5,2-6.9,0.2
	c-9.3-8.7-21.8-14.1-35.5-14.1s-26.2,5.4-35.5,14.1c-2,1.8-5,1.7-6.9-0.2l-0.5-0.5C123,77.6,123.1,74.3,125.2,72.3z M142.8,89.9
	c6.7-5.9,15.5-9.6,25.1-9.6c9.6,0,18.4,3.6,25.1,9.6c2.2,1.9,2.2,5.3,0.2,7.4l-0.5,0.5c-1.9,1.9-5,1.9-7,0.1
	c-4.7-4.2-10.9-6.7-17.7-6.7c-6.8,0-13,2.6-17.7,6.7c-2.1,1.8-5.1,1.8-7-0.1l-0.5-0.5C140.6,95.2,140.7,91.8,142.8,89.9z
	 M167.9,127.8c5.2,0,9.5-4.2,9.5-9.5s-4.3-9.5-9.5-9.5c-5.2,0-9.5,4.2-9.5,9.5S162.7,127.8,167.9,127.8z"/>
</svg>
